/* XPM */
static char * casc_windows_xpm[] = {
"16 16 11 1",
" 	c None",
".	c #2070EF",
"+	c #3F88F0",
"@	c #0050DF",
"#	c #509FF0",
"$	c #60A8FF",
"%	c #25279B",
"&	c #EEEEE0",
"*	c #CCCCCC",
"=	c #FFFFFF",
"-	c #000000",
"                ",
"-------------   ",
"-@..++###$$$-   ",
"-%%%%%%%%%%%-   ",
"-===========-   ",
"-=&&&&&&&&&*-   ",
"-=&-------------",
"-=&-@..++###$$$-",
"-=&-%%%%%%%%%%%-",
"-=&-===========-",
"-=*-=&&&&&&&&&*-",
"----=&&&&&&&&&*-",
"   -=&&&&&&&&&*-",
"   -=&&&&&&&&&*-",
"   -=**********-",
"   -------------"};
