/* XPM */
static char * chanwin_xpm[] = {
"16 16 20 1",
" 	c None",
".	c #FFFFFF",
"+	c #000000",
"@	c #0050DF",
"#	c #0454E0",
"$	c #0A59E2",
"%	c #105FE4",
"&	c #1765E7",
"*	c #1F6DEA",
"=	c #2774ED",
"-	c #307CEF",
";	c #3983F2",
">	c #418CF5",
",	c #4992F7",
"'	c #5099FA",
")	c #569FFB",
"!	c #5BA4FD",
"~	c #25279B",
"{	c #EEEEE0",
"]	c #CCCCCC",
"                ",
"++++++++++++++++",
"+@#$%&*=-;>,')!+",
"+~~~~~~~~~~~~~~+",
"+..............+",
"+.{{{{{{{{{{{{]+",
"+.{{{{{{{{{{{{]+",
"+.{{{{{{{{{{{{]+",
"+.{{{{{{{{{{{{]+",
"+.{{{{{{{{{{{{]+",
"+.{{{{{{{{{{{{]+",
"+.{{{{{{{{{{{{]+",
"+.{{{{{{{{{{{{]+",
"+{]]]]]]]]]]]]]+",
"++++++++++++++++",
"                "};
