/* XPM */
static char * channel_props_xpm[] = {
"16 16 16 1",
" 	c None",
".	c #000000",
"+	c #FFFFFF",
"@	c #FFFFCF",
"#	c #90FFFF",
"$	c #CFC890",
"%	c #2FC8FF",
"&	c #909760",
"*	c #2F97FF",
"=	c #0050DF",
"-	c #2F67FF",
";	c #20279F",
">	c #CFC8CF",
",	c #EFEFE0",
"'	c #CFCFCF",
")	c #808080",
"       ...... ..",
"      .++@@@@.#.",
"     .@.@@$$$$%.",
".....@.$.$$$&&*.",
".==.@.$.$.&&&.-.",
".;.@.>.$.$......",
".+..>,>.$.>,'.  ",
".+>>,,,>.>,,'.  ",
".+,,,,),),,,'.  ",
".+,,)))))),,'.  ",
".+,,,),),,,,'.  ",
".+,)))))),,,'.  ",
".+,,),),,,,,'.  ",
".''''''''''''.  ",
"..............  ",
"                "};
