/* XPM */
static char * channels_xpm[] = {
"16 16 22 1",
" 	c None",
".	c #1F6DEA",
"+	c #888888",
"@	c #434343",
"#	c #1765E7",
"$	c #569FFB",
"%	c #4992F7",
"&	c #418CF5",
"*	c #3983F2",
"=	c #2774ED",
"-	c #307CEF",
";	c #0454E0",
">	c #5BA4FD",
",	c #105FE4",
"'	c #0050DF",
")	c #A6A6A6",
"!	c #25279B",
"~	c #818181",
"{	c #EEEEE0",
"]	c #FFFFFF",
"^	c #CCCCCC",
"/	c #000000",
"                ",
" ////////////// ",
" /';,#.=-*&%$>/ ",
" /!!!!!!!!!!!!/ ",
" /]^{)]{{{{{{^/ ",
" /]{{)]{{{~{{^/ ",
" /]^{)]{{{~{{^/ ",
" /]{{)]{~~~~~^/ ",
" /]^{)]{{~{~{^/ ",
" /]{{)]{{~{~{^/ ",
" /]^{)]~~~~~{^/ ",
" /]{{)]{~{~{{^/ ",
" /]{{)]{{{{{{^/ ",
" /{^^+^^^^^^^^/ ",
" @///////////// ",
"                "};
