/* XPM */
static char * connect_xpm[] = {
"16 16 26 1",
" 	c None",
".	c #B9F0B9",
"+	c #D5F7D5",
"@	c #BFBFBF",
"#	c #AFAFAF",
"$	c #DFDFDF",
"%	c #B1B1B1",
"&	c #DBD8D2",
"*	c #DF9F2F",
"=	c #EFEFEF",
"-	c #EFE7EF",
";	c #7F7F7F",
">	c #CFFF2F",
",	c #EFC78F",
"'	c #2F9700",
")	c #6F6F6F",
"!	c #7F5F1F",
"~	c #8F8F8F",
"{	c #409720",
"]	c #80CF6F",
"^	c #50B830",
"/	c #000700",
"(	c #CFCFCF",
"_	c #2F601F",
":	c #FFFFFF",
"<	c #000000",
"       _________",
"       _]]]]]]]_",
"      &_]^^^^+{_",
"       _]^^^+.{_",
"  <<<<<_]+^+.^{_",
" <(((((_].+.^^{_",
"<::::::_]^.^^^{_",
"<(((@@@_{{{{{{{_",
"<();~##_________",
"<();~##-~-~>'~)/",
"<((((((((((@@~/ ",
" <<<<<<<<<<<<<  ",
"      !,!      &",
"~)////!*!////)~%",
" ==   !*!  $$$% ",
" )////!!!////)~%"};
