/* XPM */
static char * connect_to_server_xpm[] = {
"16 16 27 1",
" 	c None",
".	c #EEEEEE",
"+	c #AFAFAF",
"@	c #DDDDDD",
"#	c #848D9F",
"$	c #B1B1B1",
"%	c #888888",
"&	c #555555",
"*	c #7F7F7F",
"=	c #DF9F2F",
"-	c #111111",
";	c #1B2736",
">	c #CFFF2F",
",	c #2F9700",
"'	c #DBD8D2",
")	c #EFC78F",
"!	c #EFE7EF",
"~	c #7F5F1F",
"{	c #6F6F6F",
"]	c #BFBFBF",
"^	c #8F8F8F",
"/	c #CFCFCF",
"(	c #000700",
"_	c #2E3E5C",
":	c #000000",
"<	c #FFFFFF",
"[	c #FFFFFF",
"   #___________#",
"   _<<<<<<<<<<<_",
"   _<<<@<<@<..<_",
"   _<<%-<%-<&&<_",
"  :_<<<@<<@<..<_",
" :/_<<<<<<<<<<<_",
":<<#___________;",
":///]]]]]]]]]^{(",
":/{*^++!^!^!!^{(",
":/{*^++!^!^>,^{(",
"://////////]]^( ",
" :::::::::::::  ",
"      ~)~      '",
"^{((((~=~(((({^$",
"      ~=~     $ ",
" {((((~~~(((({^$"};
