/* XPM */
static char * cycle_xpm[] = {
"16 16 5 1",
" 	c None",
".	c #000000",
"+	c #99FF99",
"@	c #66CC00",
"#	c #007700",
"       ..       ",
"       .+.      ",
"     ...++.     ",
"    .+++@@#.    ",
"   .+...@#.     ",
"  .+.  .#.      ",
"  .+.  ..       ",
"  ..            ",
"             .. ",
"        ..  .+. ",
"       .+.  .@. ",
"      .++...@.  ",
"     .++@@@@.   ",
"      .@@...    ",
"       .#.      ",
"        ..      "};
