/* XPM */
static char * dcc_send_file_xpm[] = {
"16 16 18 1",
" 	c None",
".	c #DFDFDF",
"+	c #339966",
"@	c #D1D1D1",
"#	c #002200",
"$	c #66CC00",
"%	c #336666",
"&	c #D0D0D0",
"*	c #004400",
"=	c #007700",
"-	c #B1B1B1",
";	c #B0B0B0",
">	c #E0E0E0",
",	c #EFEFEF",
"'	c #F0F0F0",
")	c #99FF99",
"!	c #FFFFFF",
"~	c #000000",
"  ~~~~~~~~~~    ",
"  ~!!!!!!!~!~   ",
"  ~!,''',,~!'~  ",
"  ~!,',,''~!&-~ ",
"  ~!,,,'''~~~~~ ",
"  ~!',',,',;-;~ ",
"  ~!,'','*,>>-~ ",
"  ~!',',>=*>>;~ ",
"  ~!'''%=*+*>-~ ",
"  ~!,'=)))$+*;~ ",
"  ~!,=)**==#>;~ ",
"  ~!'*=>>=#>&-~ ",
"  ~!,*>.>=>@&-~ ",
"  ~!>.>.&.&@&;~ ",
"  ~!-;;;;--;--~ ",
"  ~~~~~~~~~~~~~ "};
