/* XPM */
static char * disconnect_xpm[] = {
"16 16 27 1",
" 	c None",
".	c #FFB7B7",
"+	c #BFBFBF",
"@	c #AFAFAF",
"#	c #B1B1B1",
"$	c #DF9F2F",
"%	c #FFCFCF",
"&	c #FF8787",
"*	c #EFE7EF",
"=	c #7F7F7F",
"-	c #EFEFEF",
";	c #2F9700",
">	c #CFFF2F",
",	c #EFC78F",
"'	c #D90000",
")	c #6F6F6F",
"!	c #7F5F1F",
"~	c #8F8F8F",
"{	c #ED8787",
"]	c #CF8787",
"^	c #000700",
"/	c #CFCFCF",
"(	c #FF0000",
"_	c #FFFFFF",
":	c #FF6666",
"<	c #000000",
"[	c #990000",
"       [[[[[[[[[",
"       [{{:::{][",
"       [{%{({.][",
"       [:{%{.]'[",
"  <<<<<[:({.]('[",
" </////[:{.]&]'[",
"<______[{.](]&][",
"<///+++[]]''']][",
"</)=~@@[[[[[[[[[",
"</)=~@@*~*~>;~)^",
"<//////////++~^ ",
" <<<<<<<<<<<<<  ",
"      !,!       ",
"~)^^^^!$!^^^^)~#",
" --///!$!//   # ",
" )^^^^!!!^^^^)~#"};
