/* XPM */
static char * favorites_xpm[] = {
"16 16 21 1",
" 	c None",
".	c #89ABDA",
"+	c #66A2DF",
"@	c #D4E9FF",
"#	c #92B9E5",
"$	c #2868BE",
"%	c #5E9FDF",
"&	c #3568B5",
"*	c #739ED6",
"=	c #255BAE",
"-	c #92BDE9",
";	c #ADC4E5",
">	c #6090CF",
",	c #6294D3",
"'	c #A9CBEE",
")	c #4E90D6",
"!	c #9ECEFF",
"~	c #ADD7FF",
"{	c #9EC5EC",
"]	c #D9E6F6",
"^	c #000000",
"                ",
"                ",
"        ^       ",
"       ^]^      ",
"       ^]^      ",
"      ^]{;^     ",
" ^^^^^^]{~^^^^^^",
" ^']]]]~{!]]]%$^",
"  ^*{{{{!~@{)$^ ",
"   ^={{!~@~>$^  ",
"    ^.{~@~!!^   ",
"    ^]~@~!!.^   ",
"   ^]]-&^,...^  ",
"   ^]##^ ^+++^  ",
"   ^#^^   ^^+^  ",
"   ^^       ^^  "};
