/* XPM */
static char * finger_xpm[] = {
"16 16 8 1",
" 	c None",
".	c #FFEEDE",
"+	c #663300",
"@	c #220000",
"#	c #996633",
"$	c #CC9966",
"%	c #000000",
"&	c #FFCC99",
"                ",
"                ",
"     @@%        ",
"   @@$&&%       ",
" @@$&&#%        ",
"%#$&$#+%%%%%%%% ",
"@$&&&&&&&&&$&&.%",
"@&&&&&&$%%%%%%% ",
"@&&&&&&&&&&$%   ",
"@&&&&&&$%%%%    ",
"@&&&&&&&&&$%    ",
"%#&&&&&$%%%     ",
" @#$&&&&&%      ",
"  %%%%%%%       ",
"                ",
"                "};
