/* XPM */
static char * bersirc_xpm[] = {
"16 16 15 1",
" 	c None",
".	c None",
"+	c #0F0F0F",
"@	c #FFFFFF",
"#	c #DED3B5",
"$	c #C5B7A5",
"%	c #0FAFFF",
"&	c #00CF5F",
"*	c #0097DF",
"=	c #FFB72F",
"-	c #1F9F00",
";	c #DF9700",
">	c #00679F",
",	c #9F6700",
"'	c #0F7700",
"..+++.....+++...",
".+@@#+.+++@@#+..",
".+@#$++@@#+#$+..",
".+#$$++@#$+$$+..",
"..+++.+#$$+++...",
".+%%%+.+++&&&+..",
"+%****+===+---+.",
"+%***+=;;;;+--+.",
"+%***+=;;;;+--+.",
"+%***+=;;;;+--+.",
".+*>*+=;;;;+-+..",
".+*>*++;,;+'-+..",
".+*>*++;,;+'-+..",
".+*>*++;,;+'-+..",
".++++++;,;++++..",
"......+++++....."};
