/* XPM */
static char * mdi_windows_xpm[] = {
"16 16 11 1",
" 	c None",
".	c #2557FF",
"+	c #25AAFF",
"@	c #808080",
"#	c #2963FF",
"$	c #000073",
"%	c #CECECE",
"&	c #262626",
"*	c #FFFFFF",
"=	c #0000FF",
"-	c #FBFBFB",
"                ",
"  ============& ",
"  =+.######+.+& ",
"  $$$$$$$$$$$$& ",
"  @----------%& ",
"  @--*-------%& ",
"  @*---*-----%& ",
"=======&*----%& ",
"=+##+.+&-----%& ",
"$$$$$$$&-----%& ",
"@-**--%&-----%& ",
"@-----%&%%%%%%& ",
"@-----%&&&&&&&& ",
"@%%%%%%&        ",
"&&&&&&&&        ",
"                "};
