/* XPM */
static char * network_browser_icon_xpm[] = {
"16 16 44 1",
" 	c None",
".	c #000000",
"+	c #003FBF",
"@	c #034DD5",
"#	c #0850D3",
"$	c #0E56D6",
"%	c #145CD8",
"&	c #1B63DB",
"*	c #2369DD",
"=	c #2B6FDF",
"-	c #3376E1",
";	c #397EE4",
">	c #3F82E5",
",	c #4689E7",
"'	c #4C91EC",
")	c #4887D8",
"!	c #29309A",
"~	c #3038AB",
"{	c #31389F",
"]	c #FFFFFF",
"^	c #BABABB",
"/	c #AAAAAA",
"(	c #F1F1F1",
"_	c #888888",
":	c #969696",
"<	c #B1B1B1",
"[	c #A0A0A0",
"}	c #EEEEEE",
"|	c #E7E7E7",
"1	c #E9E9E9",
"2	c #EBEBEB",
"3	c #FBFBFB",
"4	c #BCBCBC",
"5	c #A5A5A5",
"6	c #8F8F8F",
"7	c #E3E3E3",
"8	c #B2B2B2",
"9	c #CECECE",
"0	c #A4A4A4",
"a	c #B9B9B9",
"b	c #ABABAB",
"c	c #F9F9F9",
"d	c #CDCDCE",
"e	c None",
"................",
".+@#$%&*=-;>,').",
".!~~~~~~~~~~~~{.",
".]]]]]]^/]]]]]^.",
".]]]]]]^/]]]]]^.",
".(___:]^/]<[[}^.",
".]}||1]^/]2||3^.",
".]4[[5]^/]6__7^.",
".]]]]]]^/]]]]]^.",
".]8__9]^/]06]]^.",
".]]]]]]^/]]]]]^.",
".]a__b]^/]4[[1^.",
".]]]]]]^/]}||c^.",
".dddddd^/ddddd^.",
"................",
"eeeeeeeeeeeeeeee"};
