/* XPM */
static char * options_xpm[] = {
"16 16 21 1",
" 	c None",
".	c #105FE4",
"+	c #0050DF",
"@	c #1F6DEA",
"#	c #5099FA",
"$	c #1765E7",
"%	c #4992F7",
"&	c #2774ED",
"*	c #5BA4FD",
"=	c #0A59E2",
"-	c #307CEF",
";	c #569FFB",
">	c #418CF5",
",	c #3983F2",
"'	c #888888",
")	c #424242",
"!	c #25279B",
"~	c #FFFFFF",
"{	c #CCCCCC",
"]	c #000000",
"^	c #EEEEE0",
"]]]]]]]]]]]]]]] ",
"]+=.$@&-,>%#;*] ",
"]!!!!!!!!!!!!!] ",
"]~~~~~~~~~~~~~] ",
"]~^^{)^^'^''^{] ",
"]~){){^^{^{{^{] ",
"]~^){^^^^^^^^{] ",
"]~^^^^^^^^^^^{] ",
"]~^^^^^^^^^^^{] ",
"]~^^{)^^''^'^{] ",
"]~){){^^{{^{^{] ",
"]~^){^^^^^^^^{] ",
"]~^^^^^^^^^^^{] ",
"]^{{{{{{{{{{{{] ",
"]]]]]]]]]]]]]]] ",
"                "};
