/* XPM */
static char * profile_man_xpm[] = {
"16 16 33 1",
".	c None",
"+	c #000000",
"@	c #F2F2EE",
"#	c #93785B",
"$	c #E3E07C",
"%	c #593E25",
"&	c #B8B8B8",
"*	c #F1EE91",
"=	c #47461D",
"-	c #803E25",
";	c #FFFFFF",
">	c #F1EE8D",
",	c #EBE761",
"'	c #402D1B",
")	c #F2DFCD",
"!	c #474747",
"~	c #977D63",
"{	c #E4CE5E",
"]	c #CBA144",
"^	c #9999CC",
"/	c #D0CFC0",
"(	c #D5D4AC",
"_	c #BF7D63",
":	c #B2B2B2",
"<	c #E0E0E0",
"[	c #242424",
"}	c #3F3F3F",
"|	c #656565",
"1	c #F9F8CF",
"2	c #7F7F7F",
"3	c #909090",
"4	c #A7A7CC",
"5	c #AFA7FA",
"....+...........",
"..++@++.........",
".+@#$#$+........",
"++%&*=-+++++++..",
"+;>;=,')!;;;;+..",
"+!~=,{]+^^^^/+..",
"+!(_']':+<<</+..",
"+;[})+|1;+22/+..",
"+;<2[<+3;;+</+..",
"+;2442;+35;+/+..",
"+;2442;<+35;++..",
"+;2222;<2+35;+..",
"+/////////+35;+.",
"++++++++++++35+.",
"............++..",
"................"};
