/* XPM */
static char * query_window_xpm[] = {
"16 16 22 1",
" 	c None",
".	c #0A59E2",
"+	c #1F6DEA",
"@	c #5BA4FD",
"#	c #1765E7",
"$	c #307CEF",
"%	c #2774ED",
"&	c #569FFB",
"*	c #4992F7",
"=	c #418CF5",
"-	c #5099FA",
";	c #105FE4",
">	c #0454E0",
",	c #3983F2",
"'	c #0050DF",
")	c #005070",
"!	c #25279B",
"~	c #808080",
"{	c #CCCCCC",
"]	c #FFFFFF",
"^	c #EEEEE0",
"/	c #000000",
"                ",
"////////////////",
"/'>.;#+%$,=*-&@/",
"/!!!!!!!!!!!!!!/",
"/]]]]]]]]]]]]]]/",
"/]^^^^^^^//////~",
"/]^^^^^^////////",
"/]^^^^^/////~~~/",
"/]^^^^^////~~^~~",
"/]^^^^^///~~^'{/",
"/]^^^^^///~^^^~~",
"/]^^^^^^///~^~~~",
"/]^^^^^^/~~^~^/~",
"/^{{{{{{/){{~/)~",
"///////')'~/~')'",
"        ))))))) "};
