/* XPM */
static char * quitirc_xpm[] = {
"16 16 17 1",
" 	c None",
".	c #000000",
"+	c #DFE7DF",
"@	c #BFBFBF",
"#	c #8F8F8F",
"$	c #007700",
"%	c #1F1F1F",
"&	c #FF6730",
"*	c #7F5F1F",
"=	c #EFC78F",
"-	c #7F572F",
";	c #FFFFFF",
">	c #CF0000",
",	c #6F776F",
"'	c #EFD7AF",
")	c #DF9F2F",
"!	c #600000",
"  .........     ",
" .++@@@@@@#.    ",
" .+++++++#@.    ",
" .@@@@@@@##.    ",
" .########+.    ",
" .+++++++#@.    ",
" .@@@@@@@##.    ",
" .########+.    ",
" .++++$$+#+.    ",
" .@@@@@@@#....  ",
" ..%%%%%...&&&. ",
"   *=-   .&;>;>.",
" ,%*'-%%..&>;>>.",
"   *)-   .&;>;>.",
" ,%***%%..!>>>. ",
"           ...  "};
