/* XPM */
static char * script_xpm[] = {
"16 16 11 1",
" 	c None",
".	c #AFAFAF",
"+	c #D0D0BE",
"@	c #D0C7BE",
"#	c #F0E7DE",
"$	c #FFEFDF",
"%	c #F0E7CD",
"&	c #C0AE9D",
"*	c #C0B79D",
"=	c #F0F0CD",
"-	c #000000",
"         ---    ",
"        -$==-   ",
"       -$===-   ",
"      -$===-    ",
"     -$===-     ",
"    -+===-=-    ",
"   -.--=-=*=-   ",
"   -...-=*=*&-  ",
"   -.@==*=*=&-  ",
"    -+=*=*=&&-  ",
"     -$%&=%&-   ",
"     --$=%*-    ",
"    -*%-#&-     ",
"   -*%=-*-      ",
"    -*%--       ",
"     ---        "};
