/* XPM */
static char * status_window_xpm[] = {
"16 17 17 1",
" 	c None",
".	c #2557FF",
"+	c #007AB9",
"@	c #4873FF",
"#	c #006296",
"$	c #6B8FFF",
"%	c #00FF00",
"&	c #00AAFF",
"*	c #0049DC",
"=	c #8ED4FF",
"-	c #FF0000",
";	c #003DB9",
">	c #003250",
",	c #C0C0C0",
"'	c #000000",
")	c #FFFFFF",
"!	c #808080",
"          !!!!! ",
"!!!!!!!!!!,,,,!'",
"!$@@..*;!))))!!'",
"!)))))))!,,,,!''",
"!)!!)!!)!!!!!'!'",
"!)))))))!))))!!'",
"!)!!!!!!!,,,,!''",
"!!!))))))'!!!'!'",
"''!)>>>>,')))!!'",
"  !)>=&#,',,,!!'",
"  !)>++#,',-,!!'",
"  !,,,,,,',,,!' ",
"   '''''''''''  ",
"  !))))))'      ",
"  !,%,,,,'      ",
"   ''''''       ",
"                "};
