/* XPM */
static char * tile_vertical_xpm[] = {
"16 16 12 1",
" 	c None",
".	c #000000",
"+	c #0050DF",
"@	c #0F60E0",
"#	c #2070EF",
"$	c #3F88F0",
"%	c #60A8FF",
"&	c #509FF0",
"*	c #25279B",
"=	c #FFFFFF",
"-	c #EEEEE0",
";	c #CCCCCC",
"                ",
" .............. ",
" .+@#$%.+@#$&%. ",
" .*****.******. ",
" .=---;.=----;. ",
" .=---;.=----;. ",
" .=---;.=----;. ",
" .=---;.=----;. ",
" .=---;.=----;. ",
" .=---;.=----;. ",
" .=---;.=----;. ",
" .=---;.=----;. ",
" .=---;.=----;. ",
" .=;;;;.=;;;;;. ",
" .............. ",
"                "};
