/* XPM */
static char * tile_windows_xpm[] = {
"16 16 12 1",
" 	c None",
".	c #60A8FF",
"+	c #3F88F0",
"@	c #0050DF",
"#	c #0F60E0",
"$	c #509FF0",
"%	c #2070EF",
"&	c #25279B",
"*	c #EEEEE0",
"=	c #FFFFFF",
"-	c #CCCCCC",
";	c #000000",
"                ",
" ;;;;;;;;;;;;;; ",
" ;@#%%%++$$$..; ",
" ;&&&&&&&&&&&&; ",
" ;=**********-; ",
" ;=**********-; ",
" ;=-----------; ",
" ;;;;;;;;;;;;;; ",
" ;@#%%%++$$$..; ",
" ;&&&&&&&&&&&&; ",
" ;============; ",
" ;=**********-; ",
" ;=**********-; ",
" ;=-----------; ",
" ;;;;;;;;;;;;;; ",
"                "};
