/* XPM */
static char * time_xpm[] = {
"16 16 9 1",
" 	c None",
".	c #000000",
"+	c #A0A8A0",
"@	c #6F6F6F",
"#	c #505750",
"$	c #A0FF00",
"%	c #5F9700",
"&	c #2F9700",
"*	c #C0FF60",
"                ",
"                ",
"                ",
"   ..........   ",
" ..++++++++++.. ",
".++@@@@@#+#+@##.",
".@@@@@@@@@@@@@#.",
".@+++++++++++++.",
".+@$%$%$%&*%&@#.",
".+&*%$%*$%*$&%#.",
".+@*&$%&$%$$%@#.",
".+#############.",
" .............. ",
"                ",
"                ",
"                "};
