/* XPM */
static char * type_text_xpm[] = {
"16 16 62 1",
" 	c None",
".	c #866942",
"+	c #BBBDBD",
"@	c #D4BF4B",
"#	c #7878C1",
"$	c #906B31",
"%	c #9D825D",
"&	c #C2C2C2",
"*	c #696969",
"=	c #B1B1B1",
"-	c #ECF5F4",
";	c #C9C9E3",
">	c #947E63",
",	c #A3A3A3",
"'	c #BCAA91",
")	c #BBCDD0",
"!	c #7E8282",
"~	c #A2A5A4",
"{	c #B4B4B4",
"]	c #A4853D",
"^	c #8D796F",
"/	c #B6CACE",
"(	c #909191",
"_	c #B9B6D3",
":	c #C3C9C8",
"<	c #C1CED9",
"[	c #C1CFD6",
"}	c #8D8D8D",
"|	c #BEB4BA",
"1	c #9CA2A2",
"2	c #6B6D6D",
"3	c #BCCCD4",
"4	c #949494",
"5	c #846E6D",
"6	c #A8A8A8",
"7	c #D4D4D4",
"8	c #808080",
"9	c #CBCBCB",
"0	c #BED0D1",
"a	c #BD9B4E",
"b	c #A9906F",
"c	c #EBF5F3",
"d	c #BCC0C0",
"e	c #727272",
"f	c #BDC0CB",
"g	c #BECDD4",
"h	c #BFCDD5",
"i	c #C4C6E2",
"j	c #BFCAD8",
"k	c #BFCED5",
"l	c #9F9F9F",
"m	c #F1F8F7",
"n	c #FCFDFD",
"o	c #ECF6F4",
"p	c #F7FBFA",
"q	c #717171",
"r	c #D6D6D6",
"s	c #7878C0",
"t	c #7E7F7F",
"u	c #E9F4F2",
"v	c #FFFFFF",
"w	c #FFFFFF",
"                ",
"   a@$]@>@5%r   ",
"  ;##$'^_b|%,   ",
"  si.u.o.p.vq   ",
"  s)uuuompnvqr  ",
"  s[uuuompnvqr  ",
"  skuttt+pnvqr  ",
"  shuuuompnvqr  ",
"  s0utttt+vvqr  ",
"  sguuuompnvqr  ",
"  sjutttt+vvqr  ",
"  s<uuuompnvqr  ",
"  s3ut+ompnvqr  ",
"  s/uuc-:d~(4   ",
"   f1!2*e8}l&   ",
"    =6{&97      "};
