/* XPM */
static char * url_catcher_xpm[] = {
"16 16 18 1",
" 	c None",
".	c #2FFF60",
"+	c #CFFFFF",
"@	c #00007F",
"#	c #000700",
"$	c #2FFFFF",
"%	c #003000",
"&	c #F0F7F0",
"*	c #2F6700",
"=	c #2FC8FF",
"-	c #CFFFCF",
";	c #0097FF",
">	c #2FC82F",
",	c #2F9700",
"'	c #2F67FF",
")	c #006700",
"!	c #0000FF",
"~	c #000000",
"      ~~~~      ",
"    ~~&&>,~~    ",
"   ~&-->,*''~   ",
"  ~&->>**;'''#  ",
" ~&->>*;;=''''# ",
" ~>,>*'==;''))~ ",
"~+$;*';=;'')>,)~",
"~+,,;===;)->,))~",
"~>&>);==)->,)))~",
"~--->));)>,,)))~",
" ~...>,~;),,))~ ",
" ~,..>,~''))))~ ",
"  ~,,,~'''!!%~  ",
"   ~,~!'!!!@~   ",
"    ~~!!!@~~    ",
"      ~~~~      "};
